:SAMPLES-PER-SECOND 30
:FULLY-SPECIFIED
:DEGREES
1173
root  23.5855 37.9651 23.6481 160.984 74.4079 165.59
RightUpLeg  16.7801 2.21153 2.28769
RightLeg  23.9981 -5.98823 -3.32165
RightFoot  6.93705 26.1229 -110.952
RightToes  -6.98493e-010 0 -3.6325e-017
Spine  9.68348 1.57166 7.3215
Spine1  4.27739 4.73922 -11.2424
HEad  1.22341 -38.2326 -28.0759
LeftShoulder1  -0.581917 5.07601 -30.8785
LeftArm  -6.17209 33.195 -35.2266
LeftForeArm  20.0964 -6.29779 -6.49183
LeftHand  -0.00277731 7.47196 1.9872
RightShoulder  -0.558127 -5.22251 25.6629
RightArm  24.2572 -2.33981 52.0607
RightForeArm  5.03659 18.7155 5.45283
RightHand  -0.162072 0.906338 -3.07593
LeftUpLeg  -17.0578 1.60931 -4.01517
LeftLeg  7.48891 1.46128 -0.876568
LeftFoot  1.80903 0.686692 -6.06281
LeftToes  7.91257e-010 -1.64976e-010 -3.02228e-011
1174
root  22.0562 37.8682 24.05 165.646 75.3528 170.405
RightUpLeg  16.2061 4.09959 4.8881
RightLeg  22.045 -12.5605 -5.99856
RightFoot  3.83194 19.6264 -104.389
RightToes  -6.98493e-010 0 -3.6325e-017
Spine  11.3722 1.1116 11.2539
Spine1  4.26392 5.10215 -12.8058
HEad  -1.18208 -39.801 -26.2464
LeftShoulder1  -0.696814 5.36942 -31.1197
LeftArm  -7.12793 32.8355 -36.8907
LeftForeArm  20.7639 -6.64058 -6.23596
LeftHand  -0.0205585 7.09652 1.14099
RightShoulder  -0.661137 -5.47402 26.885
RightArm  25.5486 -0.536514 50.9557
RightForeArm  2.65596 19.3425 5.40808
RightHand  -0.208643 1.54426 -3.65846
LeftUpLeg  -18.3078 1.48156 -2.40372
LeftLeg  5.2988 2.69264 -0.668146
LeftFoot  1.4618 0.525949 -4.71589
LeftToes  7.91257e-010 -1.64976e-010 -3.02228e-011
1175
root  20.5663 37.8358 24.4518 170.909 75.5007 175.903
RightUpLeg  14.9057 2.68957 6.41162
RightLeg  20.4758 -13.685 -7.4186
RightFoot  1.70482 16.2895 -102.271
RightToes  -6.98493e-010 0 -3.6325e-017
Spine  12.7785 0.708175 13.7904
Spine1  4.69275 5.03062 -12.3512
HEad  -4.15397 -41.0632 -23.1877
LeftShoulder1  -0.84872 5.70484 -32.4135
LeftArm  -7.66033 30.3374 -38.3096
LeftForeArm  22.7217 -5.81803 -6.13233
LeftHand  -0.0328365 6.9807 0.347984
RightShoulder  -0.613457 -5.3346 26.7827
RightArm  24.7 1.57253 50.4504
RightForeArm  2.77 17.6438 6.00196
RightHand  -0.202259 2.21015 -3.27352
LeftUpLeg  -19.0488 1.5685 -1.07619
LeftLeg  2.79505 2.78097 -0.585138
LeftFoot  -0.960206 0.364001 -4.04799
LeftToes  7.91257e-010 -1.64976e-010 -3.02228e-011
1176
root  19.3137 37.8459 24.8495 172.579 74.6934 177.701
RightUpLeg  13.8139 -0.778346 6.61795
RightLeg  18.2163 -13.4906 -8.5374
RightFoot  0.768695 15.3198 -102.951
RightToes  -6.98493e-010 0 -3.6325e-017
Spine  13.2133 0.762848 13.3706
Spine1  5.24752 4.50684 -9.87991
HEad  -5.25343 -42.1386 -22.5775
LeftShoulder1  -0.678977 5.28963 -31.8569
LeftArm  -8.06247 28.6979 -41.367
LeftForeArm  24.5421 -5.47743 -6.33569
LeftHand  -0.0296153 6.99328 0.545
RightShoulder  -0.596564 -5.30013 26.4866
RightArm  22.5302 3.11898 50.0203
RightForeArm  5.45211 14.8963 6.96169
RightHand  -0.207895 1.81644 -3.5184
LeftUpLeg  -18.6982 1.47112 -0.642306
LeftLeg  -0.625191 0.946596 -0.775485
LeftFoot  -3.92537 0.48697 -7.13948
LeftToes  7.91257e-010 -1.64976e-010 -3.02228e-011
1177
root  18.1933 37.9955 25.1737 173.862 73.8666 178.948
RightUpLeg  12.8472 -4.32203 6.55608
RightLeg  15.5982 -11.8671 -8.77813
RightFoot  0.719551 15.6606 -104.432
RightToes  -6.98493e-010 0 -3.6325e-017
Spine  12.9529 0.508814 11.9957
Spine1  5.88099 3.39975 -7.11579
HEad  -5.49853 -41.7641 -20.2454
LeftShoulder1  -0.598592 5.0994 -31.3853
LeftArm  -7.58664 26.8957 -43.1653
LeftForeArm  25.8643 -5.68229 -6.85082
LeftHand  -0.0308936 6.57638 0.448671
RightShoulder  -0.572518 -5.19308 27.1317
RightArm  19.831 5.35977 49.5735
RightForeArm  10.1035 10.7744 8.21604
RightHand  -0.191136 0.853549 -3.64913
LeftUpLeg  -18.7867 1.67726 -0.308101
LeftLeg  -1.51929 -2.51235 -0.93673
LeftFoot  -4.89263 0.635796 -10.6849
LeftToes  7.91257e-010 -1.64976e-010 -3.02228e-011
1178
root  17.1827 38.2878 25.3865 174.529 73.0225 179.104
RightUpLeg  11.2963 -6.59278 6.05356
RightLeg  13.7752 -9.55406 -8.11308
RightFoot  1.33986 17.3874 -107.332
RightToes  -6.98493e-010 0 -3.6325e-017
Spine  12.8239 0.366408 10.9481
Spine1  5.75815 2.49213 -4.80637
HEad  -6.00269 -41.3284 -18.1114
LeftShoulder1  -0.550929 4.94402 -32.0971
LeftArm  -5.5281 23.7712 -42.5115
LeftForeArm  28.6461 -6.10627 -8.01933
LeftHand  -0.0303452 6.56595 0.265777
RightShoulder  -0.591533 -5.26408 26.8667
RightArm  15.8874 6.17004 49.7861
RightForeArm  14.0185 6.58758 8.35482
RightHand  -0.219431 1.03848 -4.09194
LeftUpLeg  -19.3485 1.2942 -0.353931
LeftLeg  0.22168 -3.82277 -0.756038
LeftFoot  -4.94681 0.66441 -11.3365
LeftToes  7.91257e-010 -1.64976e-010 -3.02228e-011
1179
root  16.2627 38.6108 25.5213 172.277 72.8523 176.3
RightUpLeg  10.739 -7.69185 5.05842
RightLeg  10.3084 -8.0753 -7.72755
RightFoot  1.84359 20.894 -115.223
RightToes  -6.98493e-010 0 -3.6325e-017
Spine  12.6314 0.349098 10.0058
Spine1  5.86856 2.27955 -4.60071
HEad  -5.29646 -41.4391 -17.247
LeftShoulder1  -0.524512 4.88314 -31.8842
LeftArm  -4.73019 20.2637 -42.2446
LeftForeArm  31.3377 -6.11907 -8.40099
LeftHand  -0.036499 5.77641 -1.02796
RightShoulder  -0.503457 -5.00637 26.664
RightArm  13.1893 4.39184 49.9436
RightForeArm  15.217 5.15287 7.37375
RightHand  -0.176049 0.845296 -3.33935
LeftUpLeg  -19.5531 1.37593 -0.886626
LeftLeg  3.66227 -2.83717 -0.81688
LeftFoot  -4.88 0.620654 -10.4579
LeftToes  7.91257e-010 -1.64976e-010 -3.02228e-011
1180
root  15.4003 38.8473 25.5787 169.524 73.1211 172.449
RightUpLeg  9.79587 -8.09888 3.77596
RightLeg  6.96616 -6.58531 -7.26706
RightFoot  1.58815 24.2613 -123.724
RightToes  -6.98493e-010 0 -3.6325e-017
Spine  12.4026 0.465837 9.58085
Spine1  5.38877 2.46011 -5.3079
HEad  -3.07454 -42.4315 -19.6895
LeftShoulder1  -0.53093 4.90058 -31.8637
LeftArm  -4.0787 17.0195 -41.5886
LeftForeArm  29.5929 -6.90936 -8.61741
LeftHand  -0.0200154 6.45345 1.4717
RightShoulder  -0.406287 -4.74775 25.7167
RightArm  10.6665 0.610041 50.2809
RightForeArm  15.1273 6.62516 6.29727
RightHand  -0.111033 -0.699024 -2.67786
LeftUpLeg  -20.1406 2.03968 -1.60009
LeftLeg  8.13095 -2.0125 -0.788492
LeftFoot  -5.09135 0.577083 -9.98523
LeftToes  7.91257e-010 -1.64976e-010 -3.02228e-011
1181
root  14.6082 38.9872 25.5924 167.276 73.3852 169.242
RightUpLeg  9.13739 -8.3975 2.50592
RightLeg  3.80601 -5.3393 -6.62955
RightFoot  0.701768 27.045 -132.002
RightToes  -6.98493e-010 0 -3.6325e-017
Spine  12.1444 0.554236 9.4543
Spine1  5.06818 2.67316 -6.03906
HEad  5.56901 -46.3066 -34.3839
LeftShoulder1  -0.40077 4.56865 -31.5082
LeftArm  -3.78972 14.5502 -41.3101
LeftForeArm  26.4702 -8.70432 -8.27978
LeftHand  -0.0187229 6.51421 1.58121
RightShoulder  -0.363938 -4.64321 24.937
RightArm  10.213 -1.64905 50.5658
RightForeArm  12.7171 6.41577 6.17393
RightHand  -0.148366 -0.124952 -3.27778
LeftUpLeg  -20.5734 2.58441 -2.01254
LeftLeg  13.4831 -2.74558 -0.674039
LeftFoot  -5.42085 0.485357 -8.75399
LeftToes  7.91257e-010 -1.64976e-010 -3.02228e-011
1182
root  13.8896 39.0342 25.5694 167.232 73.7315 168.41
RightUpLeg  7.92149 -8.40725 2.04077
RightLeg  2.39372 -4.89126 -6.45373
RightFoot  -0.159563 28.0641 -136.538
RightToes  -6.98493e-010 0 -3.6325e-017
Spine  12.0195 0.200476 9.6872
Spine1  4.3851 2.41532 -6.60746
HEad  15.1431 -47.6729 -50.3296
LeftShoulder1  -0.378804 4.53533 -30.5754
LeftArm  -3.10275 13.3153 -41.4127
LeftForeArm  22.149 -11.9659 -7.31487
LeftHand  -0.0152309 5.92958 2.6512
RightShoulder  -0.366225 -4.63906 25.2192
RightArm  12.5963 -3.17054 49.4329
RightForeArm  11.8015 8.02634 6.94798
RightHand  -0.121937 -0.379082 -2.81309
LeftUpLeg  -20.5108 1.57383 -1.16745
LeftLeg  18.5536 -2.73975 -0.681005
LeftFoot  -5.81742 0.440512 -8.39687
LeftToes  7.91257e-010 -1.64976e-010 -3.02228e-011
